<?xml version="1.0" encoding="utf-8"?>
<!-- Generator: Adobe Illustrator 23.0.4, SVG Export Plug-In . SVG Version: 6.00 Build 0)  -->
<svg version="1.1" id="Layer_1" xmlns="http://www.w3.org/2000/svg" xmlns:xlink="http://www.w3.org/1999/xlink" x="0px" y="0px"
	 viewBox="0 0 252 252" style="enable-background:new 0 0 252 252;" xml:space="preserve">
<style type="text/css">
	.st0{fill:#148878;}
	.st1{fill:#FFFFFF;}
	.st2{fill:url(#SVGID_1_);}
	.st3{fill:#148878;fill-opacity:0;}
	.st4{fill:#FFFFFF;fill-opacity:0;stroke:#148878;stroke-width:0.2;stroke-opacity:0;}
	.st5{fill:#148878;stroke:#148878;stroke-width:0.477;stroke-opacity:0;}
</style>
<title>Microsoft Sway</title>
<g transform="translate(0 -796.36)">
	<path class="st0" d="M126,840.47h102.13c2.93,0,5.29,2.36,5.29,5.28v152.33c0,2.92-2.36,5.28-5.29,5.28H126
		c-2.93,0-5.29-2.36-5.29-5.28V845.75C120.71,842.83,123.07,840.47,126,840.47z"/>
	<path class="st1" d="M127.76,847.51h98.62v148.85h-98.62V847.51z"/>
	<path class="st0" d="M179.71,928.52h41.39v8.81h-41.39V928.52z"/>
	<path class="st1" d="M127.76,847.51h98.62v70.44h-98.62V847.51z"/>
	
		<linearGradient id="SVGID_1_" gradientUnits="userSpaceOnUse" x1="-1556.6785" y1="-795.4664" x2="-1544.7323" y2="-795.4664" gradientTransform="matrix(10.2455 0 0 10.2455 15967.4922 9072.2969)">
		<stop  offset="0" style="stop-color:#168A7C"/>
		<stop  offset="0.5" style="stop-color:#16897C"/>
		<stop  offset="1" style="stop-color:#16897B"/>
	</linearGradient>
	<path class="st2" d="M18.57,841.35l122.39-21.13v204.28L18.57,1003.4V841.35z"/>
	<path class="st1" d="M58.42,953.64v-15.76c2.18,2.39,4.55,4.19,7.1,5.37c2.56,1.21,5.14,1.81,7.74,1.81c1.53,0,2.86-0.25,4-0.55
		c1.14-0.35,2.09-0.86,2.85-1.5c0.73-0.61,1.32-1.39,1.71-2.26c0.38-0.9,0.56-1.83,0.56-2.86c0-1.36-0.3-2.59-0.9-3.69
		c-0.6-1.08-1.42-2.08-2.46-2.99c-1.04-0.93-2.27-1.81-3.7-2.68c-1.52-0.89-3.07-1.76-4.62-2.59c-4.21-2.29-7.35-5.12-9.42-8.43
		c-2.07-3.34-3.1-7.31-3.1-12.04c0-3.68,0.56-6.84,1.69-9.49c1.13-2.62,2.66-4.82,4.6-6.51c1.94-1.72,4.19-2.98,6.74-3.79
		c2.56-0.8,5.26-1.2,8.12-1.2c2.81,0,5.29,0.23,7.46,0.67c2.17,0.43,4.16,1.11,5.99,2.04v14.73c-0.9-0.83-1.89-1.55-2.95-2.17
		c-1.05-0.62-2.15-1.14-3.29-1.57c-1.09-0.39-2.22-0.7-3.36-0.91c-1.12-0.25-2.17-0.3-3.18-0.3c-1.38,0-2.63,0.25-3.76,0.53
		c-1.13,0.35-2.08,0.83-2.86,1.46c-0.76,0.59-1.38,1.35-1.8,2.22c-0.43,0.88-0.64,1.87-0.64,2.95c0,1.16,0.24,2.22,0.71,3.18
		c0.48,0.93,1.15,1.82,2.03,2.64c0.98,0.93,2.05,1.75,3.2,2.48c1.25,0.82,2.67,1.61,4.25,2.48c2.16,1.18,4.09,2.44,5.81,3.79
		c1.68,1.28,3.17,2.79,4.42,4.49c1.23,1.68,2.17,3.61,2.82,5.75c0.65,2.14,0.98,4.67,0.98,7.51c0,3.94-0.57,7.25-1.71,9.92
		c-1.14,2.69-2.69,4.84-4.64,6.5c-1.95,1.66-4.23,2.86-6.82,3.59c-2.68,0.72-5.44,1.08-8.21,1.08c-2.96,0-5.77-0.33-8.44-0.98
		C62.69,955.93,60.37,954.95,58.42,953.64L58.42,953.64z"/>
	<path class="st3" d="M126.35,840.44h101.44c3.12,0,5.64,2.36,5.64,5.28v152.4c0,2.91-2.52,5.28-5.64,5.28H126.35
		c-3.12,0-5.64-2.38-5.64-5.28v-152.4C120.71,842.8,123.23,840.44,126.35,840.44z"/>
	<path class="st0" d="M179.71,950.54h41.39v8.81h-41.39V950.54z M179.71,972.55h41.39v8.81h-41.39V972.55z M133.04,928.52h41.39
		v8.81h-41.39V928.52z M133.04,950.32h41.39v8.81h-41.39V950.32z M133.04,972.55h41.39v8.81h-41.39V972.55z"/>
	<path class="st4" d="M212.29,909.15h-84.53l42.27-41.39L212.29,909.15z"/>
	<path class="st0" d="M168.26,869.53h3.52l40.5,39.62h5.28l-29.06-29.94v-0.88l7.04-7.04h1.76l29.06,28.18v18.49h-98.62v-8.81
		L168.26,869.53z"/>
	<path class="st5" d="M217.57,863.36c0,3.42-2.77,6.17-6.16,6.17c-3.4,0-6.16-2.76-6.16-6.17c0-3.4,2.77-6.15,6.16-6.15
		C214.81,857.2,217.57,859.96,217.57,863.36z"/>
</g>
</svg>
