<?xml version="1.0" encoding="utf-8"?>
<!-- Generator: Adobe Illustrator 28.2.0, SVG Export Plug-In . SVG Version: 6.00 Build 0)  -->
<svg version="1.1" id="Camada_1" xmlns="http://www.w3.org/2000/svg" xmlns:xlink="http://www.w3.org/1999/xlink" x="0px" y="0px"
	 viewBox="0 0 320 320" style="enable-background:new 0 0 320 320;" xml:space="preserve">
<style type="text/css">
	.st0{fill-rule:evenodd;clip-rule:evenodd;fill:#B2807B;}
	.st1{opacity:0.1;fill-rule:evenodd;clip-rule:evenodd;fill:#55057F;enable-background:new    ;}
	.st2{fill-rule:evenodd;clip-rule:evenodd;fill:#8533AD;}
	.st3{opacity:0.4;fill-rule:evenodd;clip-rule:evenodd;fill:#FFFFFF;enable-background:new    ;}
	.st4{fill-rule:evenodd;clip-rule:evenodd;fill:#461E5F;}
	.st5{opacity:0.1;fill-rule:evenodd;clip-rule:evenodd;fill:#14001F;enable-background:new    ;}
	.st6{fill-rule:evenodd;clip-rule:evenodd;fill:#F7B1CB;}
	.st7{fill-rule:evenodd;clip-rule:evenodd;fill:#EF6497;}
</style>
<path class="st0" d="M172.9,114.2c-1.1-7-4.9-8-7.6-7.7c0.6-7.8,0.5-15.5-0.3-22.8c-4.8-39.4-30.6-68.1-66.7-63.8
	c-36.2,4.3-53.8,38.8-49.1,77.9c0.8,7.4,2.5,15,4.8,22.4c-2.6,0.4-5.9,2.3-5.4,9.2c1.4,17.5,17.7,28.4,22.7,27.9
	c0.6-0.1,0.8-0.6,0.8-1.6c4.9,6.3,10.4,11.7,16.5,15.7c3.6,13.3,5.6,22.1-0.1,42.8c-5,18.4-0.3,34.5,16,45.1c12.3,8,30,4.6,35.1-1.1
	c11.2-12.6,4.5-29.6-2.2-50.3c-5.8-18-5.5-25.8-3.1-35.8c9.3-6.1,16.5-15.9,21.8-27.6c0.2,1.4,0.6,2.2,1.3,2.1
	C162.2,146.1,175.7,131.4,172.9,114.2z"/>
<path class="st1" d="M116.8,178.6c-11.7,1.4-22.5-2.5-31.8-9.8c8.1,11.8,20.2,22.1,29.9,22.4c8.3,0,14.8-6.9,19.1-18.9
	C128.8,175.6,123.1,177.8,116.8,178.6z"/>
<path class="st2" d="M230.4,272c-2.8-19.5-13.7-53.7-31.4-60.3c-16-5.6-39-8.4-63.1-8.2c0.4,1.4,0.9,2.9,1.4,4.5
	c6.7,20.7,13.5,37.6,2.2,50.3c-5,5.7-22.7,9.2-35.1,1.1c-16.3-10.6-21-26.7-16-45.1c0.7-2.5,1.3-4.9,1.8-7.1
	C57.6,212.3,22,220.6,12.8,236c-12.3,21-17.4,67.2,2.5,73.9c21.9,7.2,108,10.3,157.9-0.6C223.4,298.1,233.2,291.5,230.4,272z"/>
<path class="st3" d="M83.7,232.6c-0.3,16.7,12.9,35.3,35.1,36.5c13.5,0.9,21-4,25-8.3c4.8-4.9,7.3-11.8,6.7-19
	c-0.7-10-4.5-22-11.5-28.7c-0.1-0.3-0.2-0.6-0.3-0.8c6.2,18.7,11.2,34.1,0.8,45.9c-5,5.7-22.7,9.2-35.1,1.1
	c-15.2-9.9-20.4-24.7-16.8-41.6C86.1,220.4,83.9,225.3,83.7,232.6z"/>
<path class="st4" d="M172.3,69.1C156.1,9.9,90.2,3.9,73.9,25.4c0,0-28.3,6.6-35.3,50c-5.6,36.2,0.3,68.4,27.5,85.1
	c5,2.9,12.6,3.2,12.6,3.2s-5-5.7-6.7-8c-4.5,4.9-23.3-12.9-22.7-26.1c0.3-6.9,6.2-7.5,8.1-7.5c-1.4-8-1.1-16.7,1.4-25.6
	c6.4-23.3,22.7-33.3,22.7-33.3c11.8,25.9,33.4,28.2,52.4,30.7c27.8,3.7,25.5,19.5,26.6,33.9c0.1,1.2,0.2,2.3,0.2,3.5
	c-3.1,10.7-7.8,20.7-13.8,28.7c5.8,3.3,9.3,10,10.8,13.8l0.2,0.8c0,0,0,0,0,0C158.7,179.7,189.2,132.3,172.3,69.1z"/>
<path class="st5" d="M77.8,54.7c0,0-5.3-3.7-6.7-14.9c-1.1-10.6,2-12.1,2-12.1L77.8,54.7z M147,159.8c6.1-8,10.7-18,13.8-28.7
	c1.3,21.5-1.4,35.3-2.6,41.3c0,0.1-0.1,0.1-0.1,0.2c0,0.1-0.1,0.1-0.1,0.2c0,0.3,0,0.6-0.3,0.9C156.3,169.9,152.8,163.1,147,159.8z"
	/>
<path class="st6" d="M46.7,115.1C42.2,87.8,47.3,63.6,61,47C71.7,34,86.8,26.8,103.6,26.8c38.1,0,63.7,31.3,66.5,81.3l-8.4,0.6
	c-2.5-46-24.1-73.3-58-73.3c-14.3,0-27.2,6-36.2,17c-12.1,14.7-16.5,36.5-12.3,60.9L46.7,115.1z"/>
<path class="st7" d="M176.8,120.5c-0.3-11.2-3.1-24.1-9.5-23c-6.2,1.2-10.1,2-9.5,4.9c1.7,7.2,2,10.9,1.4,24.4
	c-0.5,8.2-1.5,12.5-2.5,17c-0.1,0.4-0.2,0.7-0.3,1.1c-0.4,2.2,2,3.2,5,3.2c-1.6,2.9-3.8,5.5-7,7.5c-5.5,3.2-13.4,4-19.5,4.1
	c-0.5-2-2.2-3.5-4.4-3.5h-6.2c-2.5,0-4.5,2-4.5,4.6v0.3c0,2.6,2,4.6,4.5,4.6h6.2c2,0,3.7-1.3,4.3-3.2c6.4-0.1,15.1-0.8,21-4.6
	c4.2-2.6,7-6.3,8.8-10.1c1.7-0.3,3.3-0.9,4.4-1.7C172.3,143.5,177.1,133.2,176.8,120.5z M44.7,139.5c-2.8-10.3-3.6-25,2.8-25.9
	c6.2-1.2,10.1-1.4,10.1,1.1c0.8,7.5,1.7,10.9,6.2,23.6c2.7,7.2,4.9,11,7.1,14.6c0.3,0.6,0.7,1.2,1,1.7c2.2,3.7-7.3,6.3-11.5,5.2
	C56.2,158.7,48.1,151.6,44.7,139.5z"/>
<path class="st5" d="M161.3,148.1c-1.6,2.9-3.8,5.5-6.9,7.5c-5.5,3.2-13.4,4-19.5,4.1c-0.5-2-2.2-3.5-4.3-3.5h-6.2
	c-2.5,0-4.5,2-4.5,4.6v0.3c0,2.6,2,4.6,4.5,4.6h6.2c2,0,3.7-1.3,4.3-3.2c6.4-0.1,15.1-0.7,21-4.6c4.2-2.6,7-6.3,8.8-10.1
	C163.5,148,162.4,148.1,161.3,148.1z"/>
</svg>
