<?xml version="1.0" encoding="UTF-8"?>
<svg xmlns="http://www.w3.org/2000/svg" version="1.1" viewBox="0 0 320 320">
  <defs>
    <style>
      .cls-1 {
        fill: #fff;
      }

      .cls-1, .cls-2, .cls-3, .cls-4 {
        fill-rule: evenodd;
      }

      .cls-2 {
        fill: #ceadde;
      }

      .cls-3 {
        fill: #8533ad;
      }

      .cls-4 {
        fill: #6a298a;
      }
    </style>
  </defs>
  <!-- Generator: Adobe Illustrator 28.7.0, SVG Export Plug-In . SVG Version: 1.2.0 Build 65)  -->
  <g>
    <g id="Camada_1">
      <path class="cls-3" d="M50.4,170.4c-.9-2.4-1.1-5-.8-8,.4-3.2,1.9-7.2,3.9-8.9.5-.4,1.1-.7,1.6-.7s.4,0,.7.1c1,.3,1.7,1.3,2.1,2.5,1.2,5-2.1,10.3-5.3,13.2-.8.8-1.4,1.4-2.2,1.8ZM40.9,147c.4-.3,1.1-.5,1.6-.5s.7.1,1,.2c1,.5,1.5,1.7,1.6,3.6,0,1.9-1,6-5.1,9.7-1.3,1.2-2.7,2.1-4,2.5-.9-6.7,1.1-12.9,4.9-15.5ZM274.6,263.1c14.3-13.9,22.6-32.4,22.6-56s-7-41.4-19.1-58.4c.9-4.5,4.6-24.5,1.1-31.6-1.3-3.9-6.4-4-11.9-.8-3.5,2.2-7.7,6.1-10.9,9.6-21.3-16.7-49.4-26.9-80.1-26.9-55.7,0-102.6,33.8-116.6,79.7-2.8-.5-5.3-2.1-6.9-4.1-.4-.5-.8-1-1.1-1.5,1-.5,2-1.3,2.8-2.1,3.8-3.5,7.6-9.7,6.1-15.9-.5-2.2-2-3.9-3.9-4.6-1.6-.5-3.5-.2-4.9,1-2.8,2.3-4.4,7.1-4.9,10.7-.4,3.4-.2,6.5.9,9.5-2,.5-4.1.4-6.2-.2-2.2-.8-4.1-3.5-5-6,1.7-.5,3.6-1.6,5.3-3.2,4.6-4,6.1-8.9,6-11.9,0-3.9-2-5.5-3.2-6-1.6-.9-3.8-.7-5.5.4-4.7,3.2-7.1,10.5-6.1,18.3-.3,0-.5,0-.9-.1-1.6-.3-2.9-1.3-3.7-2.8-2.1-4.1-1.3-9.3,2.3-14.4.4-.7.2-1.5-.3-2-.7-.4-1.5-.3-2,.3-4.1,6-5,12.2-2.5,17.2,1.1,2.3,3.2,3.8,5.7,4.4.7.1,1.3.2,2,.1,1.1,3.4,3.6,7,6.9,8.2,2.9,1,5.8,1.1,8.4.2.4.8.9,1.4,1.4,2.1,2,2.6,5,4.4,8.4,5.1-2.3,8.3-3.5,16.9-3.5,25.9,0,25.6,10,45.4,26.7,59.6l-4,9.8c-3.7,8.9.5,19.2,9.4,22.8l2.2.9c8.9,3.7,19.2-.5,22.8-9.4l2.4-5.8c5.8,2.1,11.9,3.8,18.3,5.1h.2c2.6.5,5.2,1.1,7.9,1.5.1,0,.3,0,.4.1,1.3.2,2.5.4,3.8.5h.2c1.3.2,2.6.3,3.9.5.2,0,.4,0,.5.1,1.2.1,2.3.2,3.5.4.2,0,.4,0,.7.1,1.3.1,2.6.2,3.9.3h.7c1.1.1,2.3.1,3.4.2.3,0,.7,0,.9.1,1.3.1,2.6.1,3.9.2h1.6v5c0,9.6,7.9,17.5,17.5,17.5h2.4c9.7,0,17.5-7.9,17.5-17.5v-6.9c12-1.6,23.2-4.4,33.4-8.2,2.7,6.9,9.7,11.6,17.6,10.9l2.4-.2c9.6-.8,16.8-9.2,16.1-18.8l-.9-13Z"/>
      <path class="cls-4" d="M153,109.3h1.2c5.7,0,12.4-.3,24.3,2,15.2,2.9,18.7,3.9,24,5.8,3.2,1.2,7-2.1,6.5-3.4-.7-1.7-10.1-5.1-23.3-7.5-15.2-2.7-22.5-1.9-25.6-1.4-6.5,1-9.9,4.6-7.1,4.5ZM267.2,116.6c5.5-3.4,10.7-3.2,11.9.9h0c3.4,7.2-.2,27.1-1.1,31.5-3.9-5.5-8.4-10.7-13.4-15.4-.9,3.4-1.1,5.9-1.1,5.9,0,0-3.5-1.5-6-4.1-.2-.2-.3-.3-.4-.5-2.3-2.7-2.8-4.7-3.1-5.5,0-.2-.1-.4-.1-.4,3.3-4,9-9.6,13.3-12.4ZM204.3,150.7h0c.4.7.3,1.6-.3,2.1-.5.4-1.3.3-1.7-.1-1.7-.4-9.2-2.2-18,1.2-6.4,2.5-14.2,8.9-20.4,18.3,0,3.1.2,6.1.5,8.9.3,2,.5,3.5.8,4.5.1.8-.1,1.5-.8,2-5.5,3.6-13.2.8-16.4-2.1-.8-.7-1.1-1.6-1.1-2.7.1-3.7,1-14,4.9-23.6s11.3-22.4,24.3-26.9c0,0-.1,0-.2.1h0c12.8-4.6,24.6,12.6,28.4,18.3ZM49.6,162.6c-.4,2.8-.2,5.6.8,8,.8-.4,1.4-1,2.2-1.6,3.3-2.9,6.5-8.2,5.3-13.2-.3-1.3-1.1-2.3-2.1-2.5-.2-.1-.4-.1-.7-.1-.5,0-1.1.2-1.6.7-2,1.3-3.4,5.4-3.9,8.7ZM42.4,146.4c-.5,0-1.1.2-1.6.5-3.8,2.6-5.8,8.8-4.9,15.5,1.3-.5,2.7-1.3,4-2.5,4.1-3.7,5.1-7.9,5.1-9.7,0-1.9-.7-3.1-1.6-3.6-.2,0-.5-.2-1-.2ZM52.7,174.6c1.6,2.1,4.1,3.6,6.9,4.1-.2.9-.5,1.7-.8,2.7-3.4-.8-6.4-2.6-8.4-5.1-.5-.7-1-1.4-1.4-2.1-2.7.9-5.6.8-8.4-.2-3.3-1.2-5.8-4.8-6.9-8.2-.7,0-1.3,0-2-.1-2.5-.4-4.6-2.1-5.7-4.4-2.5-5.1-1.6-11.2,2.5-17.2.4-.7,1.3-.8,2-.3.7.4.8,1.3.3,2-3.5,5.1-4.4,10.3-2.3,14.4.8,1.5,2.1,2.5,3.7,2.8.3.1.5.1.9.1-1-7.9,1.4-15.2,6.1-18.3,1.6-1.1,3.7-1.3,5.5-.4,1.1.5,3.1,2.1,3.2,6,0,2.9-1.4,7.9-6,11.9-1.7,1.5-3.5,2.6-5.3,3.2.9,2.6,2.7,5.2,5,6,2.2.8,4.3.9,6.2.2-1.1-2.8-1.4-6-.9-9.5.5-3.6,2.1-8.4,4.9-10.7,1.4-1.2,3.3-1.5,4.9-1,1.9.7,3.4,2.3,3.9,4.6,1.5,6.2-2.3,12.4-6.1,15.9-.9.9-1.9,1.5-2.8,2.1.2.4.6.9,1,1.5ZM239.5,284.4c13.7-5.1,25.6-12.2,35-21.3l1,13.3c.8,9.6-6.4,18-16.1,18.8l-2.4.2c-7.8.5-14.7-4-17.5-11ZM206.1,292.6c8.2-1.1,16-2.7,23.5-4.9-7.6,1.2-15.4,1.2-23.5,1v3.9ZM83.2,263.9l-1.2,2.9c-6-5.1-11.2-10.9-15.3-17.6,4.7,5.6,10.2,10.4,16.5,14.7ZM117.4,279l-2.5,6c16,5.7,34.4,8.7,53.9,9.4v-7.2c-18.6-1.1-35.9-3.7-51.4-8.2ZM264.3,246.9c-15.7,0-28.4-15.4-28.4-34.4s12.3-33.9,27.7-34.4v-.4c-2.8.3-5.4.5-8.1.8-6.1.4-12.1,1-17.8,2.9-11.6,4.1-23.1,21.6-16.8,46.2,7,27.1,38.1,23.9,47.8,19.7,3.1-1.3,5.5-2.6,7.3-3.8-3.5,2.3-7.4,3.4-11.7,3.4ZM251.6,213.1c0-3.6,1.6-6.5,3.7-6.5s3.7,2.9,3.7,6.5-1.6,6.5-3.7,6.5-3.7-2.9-3.7-6.5ZM279.2,205.1c-1.7,0-3.1,2.4-3.1,5.5s1.4,5.5,3.1,5.5,3.1-2.4,3.1-5.5c0-3.1-1.3-5.5-3.1-5.5Z"/>
      <path class="cls-3" d="M209.8,18c-11.3-11.4-26.5-16.3-41.2-14.7-12.8-.3-25.5,4.5-35.2,14.3-18.9,19.1-18.9,50.2,0,69.3,2.7,2.8,5.8,5.2,9.1,7.2,19.9,16.4,49,15.2,67.4-3.6,19.6-20,19.6-52.5-.1-72.5Z"/>
      <path class="cls-1" d="M156.6,65.8c-1.6-.9-2.1-2.2-1.3-3.7l1.1-2.2c.7-1.4,2-1.9,3.8-.9,2.7,1.1,5.7,1.9,8.7,1.9s4.9-.7,4.9-2.7-.7-1.7-1.9-2.3c-1.1-.5-3.1-1-5.5-1.6-5.5-1.3-10.3-3.9-10.3-10.5s4.3-9.1,9.6-10.1v-3.4c0-1.4,1.2-2.4,2.7-2.4h2.6c1.4,0,2.8,1.1,2.8,2.4v3.4c2.2.3,4.5.9,6.3,1.6,1.6.5,2.3,1.6,1.9,3.5l-.7,2.2c-.4,1.6-1.9,2.3-3.7,1.5-2.7-1.1-5.5-1.9-8.2-1.9s-4.7.7-4.7,2.5,2.7,3.1,8,4.4c5.6,1.3,10.3,3.4,10.3,9.7s-4,9.5-9.8,10.5v3.2c0,1.4-1.3,2.5-2.7,2.5h-2.6c-1.4,0-2.7-1.1-2.7-2.5v-2.9c-3.2-.2-6-.9-8.6-2.2Z"/>
      <path class="cls-4" d="M201.6,17.6c-9.2-9.3-20.9-14.1-32.9-14.3,14.7-1.6,29.9,3.3,41.1,14.7,19.7,20,19.7,52.5,0,72.4-18.4,18.8-47.6,20-67.4,3.6,18.5,11.6,43.1,9.2,59.2-7.2,18.7-19,18.7-50,0-69.2ZM145.7,75.4c13.3,13.5,35,13.5,48.4,0,5.8-5.9,9.1-13.4,9.8-21.2-.5,8.6-4,17.1-10.6,23.8-14.2,14.4-37.2,14.4-51.4,0s-14.2-37.7,0-52.1c12.4-12.7,31.7-14.2,45.9-4.6-13.2-8.3-30.8-6.7-42.2,5-13.3,13.5-13.3,35.6.1,49.1Z"/>
      <path class="cls-2" d="M142.2,19.2c.4.4,1,.7,1.4.7s1.1-.2,1.4-.7c3.2-3.2,7.2-5.2,12.4-6.1,1.1-.2,1.9-1.3,1.6-2.4s-1.3-1.9-2.4-1.7c-6.1,1.1-10.9,3.5-14.7,7.3-.5.7-.5,2.1.3,2.9ZM175.8,92.5c0,1.2,1,2.2,2.1,2.2,4.5,0,11.5-2.4,17.9-9.2.8-.9.8-2.2-.1-3.1-.9-.8-2.2-.8-2.9,0-7.1,7.5-13.5,7.9-14.8,7.9-1.3,0-2.2.9-2.2,2.1Z"/>
    </g>
  </g>
</svg>