<?xml version="1.0" encoding="UTF-8"?>
<svg id="Camada_1" data-name="Camada 1" xmlns="http://www.w3.org/2000/svg" version="1.1" viewBox="0 0 320 320">
  <defs>
    <style>
      .cls-1 {
        fill: #eb3d7d;
      }

      .cls-1, .cls-2, .cls-3, .cls-4 {
        fill-rule: evenodd;
        stroke-width: 0px;
      }

      .cls-2 {
        fill: #ddd;
      }

      .cls-3 {
        fill: #ef6497;
      }

      .cls-4 {
        fill: #8533ad;
      }
    </style>
  </defs>
  <path class="cls-4" d="M174.8921814,297.7391663l-147.4910583-20.7287292c-8.9834747-1.2623291-15.2424603-9.5687256-13.9801455-18.551239L43.7270737,42.8237839c1.2623138-8.9834747,9.5687294-15.2424507,18.5512466-13.9801369l147.4920044,20.7287407c8.9825287,1.2632713,15.2415009,9.5677719,13.979187,18.5522003l-30.3060913,215.6353607c-1.2623138,8.9825134-9.5677643,15.2415161-18.5512543,13.979187l.0000153.0000305Z"/>
  <path class="cls-3" d="M173.6145782,301.1340332l-148.5784607-10.3892517c-9.0494576-.6330566-15.8726521-8.4814148-15.2405376-17.5308838L24.9863892,55.9890442c.6321144-9.0494614,8.4814186-15.8716965,17.5308762-15.2395821l148.5784683,10.3892326c9.049469.6330719,15.8726654,8.4823761,15.2405548,17.5318298l-15.1908264,217.2239456c-.6321106,9.0494385-8.4813995,15.8726501-17.5308685,15.2395935v-.0000305h-.0000153Z"/>
  <path class="cls-2" d="M172.0175629,303.8948669H23.0758915c-9.0704975,0-16.4253941-7.3529663-16.4253941-16.4253845V69.7143402c0-9.0714569,7.3548965-16.425396,16.4253941-16.425396h148.9416714c9.0704956,0,16.4253998,7.3539391,16.4253998,16.425396v217.7551422c0,9.0724182-7.3549042,16.4253845-16.4253998,16.4253845Z"/>
  <path class="cls-4" d="M43.0387306,119.406601h110.3711662c1.4487915,0,2.6221619-1.1743469,2.6221619-2.6212234v-.2103806c0-1.4487991-1.1733704-2.6221771-2.6221619-2.6221771H43.0387306c-1.4487953,0-2.6221733,1.173378-2.6221733,2.6221771v.2103806c0,1.4468765,1.173378,2.6212234,2.6221733,2.6212234ZM43.0387306,135.7669678h110.3711662c1.4487915,0,2.6221619-1.1743317,2.6221619-2.6212158v-.2103882c0-1.4487915-1.1733704-2.6221619-2.6221619-2.6221619H43.0387306c-1.4487953,0-2.6221733,1.1733704-2.6221733,2.6221619v.2103882c0,1.4468842,1.173378,2.6212158,2.6221733,2.6212158ZM125.8828201,152.1282959H43.0385361c-1.4487915,0-2.6221733-1.1743317-2.6221733-2.6212158v-.2103882c0-1.4487915,1.1733818-2.6221771,2.6221733-2.6221771h82.8442841c1.4487915,0,2.6212082,1.1733856,2.6212082,2.6221771v.2103882c0,1.4468842-1.1724243,2.6212158-2.6212082,2.6212158ZM43.03825,175.7603607h60.8229179c1.4487915,0,2.6212158-1.1743317,2.6212158-2.6212158v-.2103882c0-1.4478455-1.1724243-2.6212158-2.6212158-2.6212158h-60.8229179c-1.4478378,0-2.6221695,1.1733704-2.6221695,2.6212158v.2103882c0,1.4468842,1.1743317,2.6212158,2.6221695,2.6212158ZM153.4098969,192.1207275H43.0387306c-1.4487953,0-2.6221733-1.1743469-2.6221733-2.6212158v-.2103882c0-1.4478455,1.173378-2.6212311,2.6221733-2.6212311h110.3711662c1.4487915,0,2.6221619,1.1733856,2.6221619,2.6212311v.2103882c0,1.4468689-1.1733704,2.6212158-2.6221619,2.6212158ZM43.0385361,208.4820404h82.8442841c1.4487915,0,2.6212082-1.1743317,2.6212082-2.6212158v-.2103882c0-1.4478302-1.1724243-2.6212158-2.6212158-2.6212158H43.0385361c-1.4487915,0-2.6221733,1.1733856-2.6221733,2.6212158v.2103882c0,1.4468842,1.1733818,2.6212158,2.6221733,2.6212158ZM103.8611679,241.202774h-60.8229179c-1.4478378,0-2.6221695-1.1733856-2.6221695-2.6212158v-.2103882c0-1.4478455,1.1743317-2.6212158,2.6221695-2.6212158h60.8229179c1.4487915,0,2.6212158,1.1733704,2.6212158,2.6212158v.2103882c0,1.4478302-1.1724243,2.6212158-2.6212158,2.6212158ZM43.0387306,224.8424072h110.3711662c1.4487915,0,2.6221619-1.1743317,2.6221619-2.6212158v-.2103882c0-1.4478455-1.1733704-2.6212158-2.6221619-2.6212158H43.0387306c-1.4487953,0-2.6221733,1.1733704-2.6221733,2.6212158v.2103882c0,1.4468842,1.173378,2.6212158,2.6221733,2.6212158Z"/>
  <path class="cls-3" d="M184.7277222,242.3187714c0-35.5934601,25.5953369-65.1909027,59.3813934-71.4364777,2.6518097-.4905853,4.549118-2.8488159,4.549118-5.5455933v-7.5375366c0-4.5519867,5.2338104-7.1158295,8.8304443-4.3234406l40.3405151,31.3130646c2.8230286,2.1918488,2.8230286,6.4569244,0,8.6478119l-40.3405151,31.3149719c-3.5966339,2.7914429-8.8304749.2276001-8.8304749-4.3243866v-5.7597809c0-3.56987-3.2628784-6.2216797-6.768692-5.5532379-24.9355011,4.754715-43.7851105,26.6625824-43.7851105,52.9818115,0,15.5102234,6.5535126,29.4808044,17.0316772,39.3220825-18.4039764-13.1845093-30.4084015-34.7337646-30.4084015-59.0993042l.0000305.0000153h.0000153Z"/>
  <path class="cls-1" d="M184.7277222,242.3187714c0-35.5934601,25.5953369-65.1909027,59.3813934-71.4364777,2.6518097-.4905853,4.5481567-2.8488159,4.5481567-5.5455933v-7.5375366c0-4.5519867,5.234787-7.1158295,8.8304596-4.3234406l7.0775757,5.4939423c-3.1175232-.4877167-6.3230591,1.8561707-6.3230591,5.418396v7.5384979c0,2.6967621-1.8972778,5.0549927-4.5491028,5.544632-33.78508,6.245575-59.3813934,35.8430481-59.3813934,71.4364929,0,10.6914368,2.3123322,20.8387146,6.4607544,29.9761353v-.0018921c2.8478546,8.6937256,7.8464355,16.4148865,14.3636169,22.5361633-18.4039764-13.1845093-30.4084015-34.7337646-30.4084015-59.0993042l-.0000153.0000153.0000153-.0000305Z"/>
</svg>