<?xml version="1.0" encoding="UTF-8"?>
<svg xmlns="http://www.w3.org/2000/svg" version="1.1" viewBox="0 0 320 320">
  <defs>
    <style>
      .cls-1, .cls-2 {
        fill: #8533ad;
      }

      .cls-3 {
        fill: #ef6497;
      }

      .cls-2, .cls-4, .cls-5 {
        fill-rule: evenodd;
      }

      .cls-6 {
        fill: #f7b1cb;
      }

      .cls-4 {
        fill: #ddd;
      }

      .cls-5 {
        fill: #6a298a;
      }
    </style>
  </defs>
  <!-- Generator: Adobe Illustrator 28.8.0, SVG Export Plug-In . SVG Version: 1.2.0 Build 19)  -->
  <g>
    <g id="Layer_1">
      <g>
        <path class="cls-4" d="M312.2,45.8c-2.6-3.9-6.3-6.9-10.7-8.6-2.5-.9-5.1-1.5-7.9-1.5H28.4c-12.2,0-22.2,10-22.2,22.2v184.3c0,12.2,10,22.2,22.2,22.2h101.8v40.7h-25.7c-2.5,0-4.6,2.1-4.6,4.6v2.9c0,2.5,2.1,4.6,4.6,4.6h115.6c2.5,0,4.6-2.1,4.6-4.6v-2.9c0-2.5-2.1-4.6-4.6-4.6h-25.7v-40.7h99.2c12.2,0,22.2-10,22.2-22.2V57.9c0-4.4-1.3-8.6-3.6-12.1Z"/>
        <path class="cls-2" d="M166.8,252.9c-4.1,0-7.5-3.4-7.5-7.5s3.4-7.5,7.5-7.5,7.5,3.4,7.5,7.5-3.3,7.5-7.5,7.5ZM17.8,224.6v17.7c0,12.2,10,22.2,22.2,22.2h253.6c12.2,0,22.2-10,22.2-22.2v-17.7H17.8Z"/>
        <path class="cls-1" d="M130.2,305.1v-40.7h64.3v40.7h25.7c2.5,0,4.6,2.1,4.6,4.6v2.9c0,2.5-2.1,4.6-4.6,4.6h-115.6c-2.5,0-4.6-2.1-4.6-4.6v-2.9c0-2.5,2.1-4.6,4.6-4.6h25.6Z"/>
        <path class="cls-5" d="M28.4,35.7h11.6c-12.2,0-22.2,10-22.2,22.2v184.3c0,12.2,10,22.2,22.2,22.2h-11.6c-12.2,0-22.2-10-22.2-22.2V57.9c0-12.2,10-22.2,22.2-22.2ZM130.2,264.4v40.7h10.8v-20.1c0-5.4,4.4-9.8,9.8-9.8h43.6v-10.8h-64.2ZM115.3,305.1h-10.8c-2.5,0-4.6,2.1-4.6,4.6v2.9c0,2.5,2.1,4.6,4.6,4.6h10.8c-2.5,0-4.6-2.1-4.6-4.6v-2.9c0-2.5,2.1-4.6,4.6-4.6Z"/>
      </g>
      <path class="cls-1" d="M127.2,69.9l2.7-1.2,31.7,71.9-2.7,1.2-31.7-71.9Z"/>
      <path class="cls-1" d="M167.2,140.6l69.6-51.3,1.8,2.4-69.6,51.3-1.8-2.4Z"/>
      <path class="cls-1" d="M96.6,160.6l61.4-21.3,1,2.8-61.4,21.3-1-2.8Z"/>
      <path class="cls-1" d="M140.7,207.1l16.4-66.8,2.9.7-16.4,66.8-2.9-.7Z"/>
      <path class="cls-1" d="M168.4,143.7l1.5-2.6,61.7,35.9-1.5,2.6-61.7-35.9Z"/>
      <circle class="cls-3" cx="127.5" cy="68.1" r="23"/>
      <circle class="cls-3" cx="229.6" cy="177.7" r="16.3"/>
      <circle class="cls-3" cx="235.1" cy="92.3" r="18.8"/>
      <circle class="cls-3" cx="96.7" cy="161" r="10.7"/>
      <circle class="cls-3" cx="142" cy="206.8" r="7.1"/>
      <g>
        <circle class="cls-3" cx="164.4" cy="140" r="35.4"/>
        <path class="cls-6" d="M162.4,139.1v-27.8c-4.6,5.2-12.5,15.5-13.6,27.8h13.6ZM166.6,111.3v27.8h13.6c-1.3-12.3-9-22.7-13.6-27.8ZM162.4,169.4v-26.3h-13.8c.2,9.6,4.8,18.4,13.8,26.3ZM180.2,143.1h-13.8v26.5c9-8.1,13.6-16.9,13.8-26.5Z"/>
        <path class="cls-6" d="M184.3,143.1c-.4,10.4-5,19.8-14,28.4,13.8-2.5,24.6-14.2,25.9-28.4,0,0-11.9,0-11.9,0ZM158.4,171.3c-9-8.4-13.6-18-14-28.2v-.2h-11.7c1.3,14.4,12,25.7,25.7,28.4ZM144.6,139.1c1.2-13.6,9.6-24.8,14.6-30.5-14.8,2.5-26.1,15.2-26.7,30.5,0,0,12.1,0,12.1,0ZM196.4,139.1c-.6-15.4-11.9-28.2-26.9-30.5,5.2,5.8,13.4,16.9,14.8,30.5h12.1,0Z"/>
      </g>
    </g>
  </g>
</svg>