<?xml version="1.0" encoding="UTF-8"?>
<svg xmlns="http://www.w3.org/2000/svg" version="1.1" viewBox="0 0 320 320">
  <defs>
    <style>
      .cls-1 {
        fill: #ef6497;
      }

      .cls-1, .cls-2, .cls-3, .cls-4, .cls-5, .cls-6, .cls-7 {
        fill-rule: evenodd;
      }

      .cls-2 {
        fill: #916666;
      }

      .cls-3 {
        fill: #461e5f;
      }

      .cls-4 {
        fill: #55057f;
        isolation: isolate;
        opacity: .1;
      }

      .cls-5 {
        fill: #8533ad;
      }

      .cls-6 {
        fill: #f4d7ba;
      }

      .cls-7 {
        fill: #da9;
      }
    </style>
  </defs>
  <!-- Generator: Adobe Illustrator 28.6.0, SVG Export Plug-In . SVG Version: 1.2.0 Build 709)  -->
  <g>
    <g id="Camada_1">
      <g>
        <path class="cls-5" d="M306,246.8c0,38.2-31,69.2-69.2,69.2s-69.2-31-69.2-69.2,31-69.2,69.2-69.2,69.2,31,69.2,69.2Z"/>
        <path class="cls-6" d="M250.2,290.8c1.9.1,3.8.2,5.7.2,4.2,0,11.8-.5,14.7-4.2,1.6-2,3.8-23.5,4.7-24.5,1.4-1.3,3.8-.4,5.5-1.6,3.4-2.4-1.5-5.5-4.5-14.9-6.5-17.5,1.4-29.9-24.5-37.2-17.3-4.9-39,2.9-44.7,25.8-1.9,7.9-1.4,16.1.5,23.9,2,7.8,10.2,17.5,15.9,22.9,1,7.1-4.3,32-4.3,32,0,.2,0,.4,0,.6,5.6,1.5,11.5,2.2,17.5,2.2s6.3-.2,9.3-.6c-1.5-14.1,4.1-24.6,4.1-24.6Z"/>
        <path class="cls-4" d="M246.4,303.5c1.1-7.3,3.6-12.1,3.8-12.6,0,0,0,0,0,0-6.7-.5-13.3-1.9-19.3-4.5,4.8,6,10,11.5,14.5,16.1.2.3.6.6,1,1Z"/>
        <path class="cls-3" d="M269.7,224.5c-.3-10-7.3-24.8-32.7-23.8-5.3,0-9.4,1.5-12,3.6-.4.3-.8.5-1.3.6-3.9.5-21.7,3.5-28.6,20.7-2.6-.3-5.5-.1-8.8,1-16.7,5.8-24.6,33.8-2.7,59.8,4.4,5.2,7.3,9.8,9.1,13.9,4.5,3.7,9.4,6.8,14.7,9.3.6-1.8,1.2-3.8,1.5-6.1,1.2-7.5-2.8-21.2-5-34.3,4.4,4.2,8.7,6.5,10.2,7.4,2.9,1.9,4.2,4.3,4.4,6.4.4,3.2-2.1,4.1-2,4.4.2.3,2,.9,4.2-1,1.4-1.2,1.5-3.8,1.5-3.8.3,1.5.2,3.9,0,5.2-.2,1-.5,1.8-.8,2.3-.2.4.1.9.6.8,6-1.2,15.3-8.4,17.3-18.2,0,0,0-.1,0-.2-5.3-1.4-13.4-8.5-14.2-15-.9-7.1,4.1-8.9,9.6-5.6,2.3,1.3,4.7,3.6,5.9,5,.4.4,1.1.2,1.1-.4.8-8.6,2.3-19.8,3.3-19.4.9.3,1.2,2.3,1.1,5.5,0,2.1-.5,5.7-.9,7.1-.2.9,1,1.4,1.7.7,1.5-1.5,3.8-4.1,5.9-7.4,5.1-2.1,17-8.2,16.6-18.7Z"/>
        <path class="cls-1" d="M142.1,246.8c0,38.2-31,69.2-69.2,69.2S3.7,285.1,3.7,246.8s31-69.2,69.2-69.2,69.2,31,69.2,69.2Z"/>
        <path class="cls-7" d="M86.3,290.8c1.9.1,3.8.2,5.7.2,4.2,0,11.8-.5,14.7-4.2,1.6-2,3.8-23.5,4.7-24.5,1.4-1.3,3.8-.4,5.5-1.6,3.4-2.4-1.5-5.5-4.5-14.9-6.5-17.5,1.4-29.9-24.5-37.2-17.3-4.9-39,2.9-44.7,25.8-1.9,7.9-1.4,16.1.5,23.9,2,7.8,10.2,17.5,15.9,22.9,1,7.1-4.3,32-4.3,32,0,.2,0,.4,0,.6,5.6,1.5,11.5,2.2,17.5,2.2s6.3-.2,9.3-.6c-1.5-14.1,4.1-24.6,4.1-24.6Z"/>
        <path class="cls-4" d="M82.5,303.5c1.1-7.3,3.6-12.1,3.8-12.6,0,0,0,0,0,0-6.7-.5-13.3-1.9-19.3-4.5,4.8,6,10,11.5,14.5,16.1.2.3.6.6,1,1Z"/>
        <path class="cls-3" d="M94.1,203.2c-13.7-7.9-27.9-3.1-32.9,1-.4.3-.8.5-1.3.6-3.8.4-20.7,3.3-28,19.2-8.1,11.4-8.5,33.4-5.8,51.6,1.4,9.4,0,15.9-1.8,20.4,12.5,12.4,29.7,20,48.7,20s2.4,0,3.6,0c-1.6-5.4-4-14.3-4.4-20.7-.4-7,1.1-14,2.3-18.3.6-1.3,1-2.7,1.3-4.1,0,0,0-.1,0-.2-5.3-1.4-13.4-8.5-14.2-15-.9-7.1,4.1-8.9,9.6-5.6,2.3,1.3,4.7,3.6,5.9,5,.2.2.4.2.6.2h0s0,0,0,0c0,0,0,0,0,0,1.1-.3,18.4-6,20.5-19.4,1.3-8.3.8-16.7-3.5-22.6,7.2-.5,12.9,7.7,12.9,7.7,0,0-1.5-12.9-13.3-19.8Z"/>
        <path class="cls-1" d="M306,83.9c0,38.2-31,69.2-69.2,69.2s-69.2-31-69.2-69.2S198.6,14.7,236.8,14.7s69.2,31,69.2,69.2Z"/>
        <path class="cls-2" d="M250.2,127.9c1.9.1,3.8.2,5.7.2,4.2,0,11.8-.5,14.7-4.2,1.6-2,3.8-23.5,4.7-24.5,1.4-1.3,3.8-.4,5.5-1.6,3.4-2.4-1.5-5.5-4.5-14.9-6.5-17.5,1.4-29.9-24.5-37.2-17.3-4.9-39,2.9-44.7,25.8-1.9,7.9-1.4,16.1.5,23.9,2,7.8,10.2,17.5,15.9,22.9,1,7.1-4.3,32-4.3,32,0,.2,0,.4,0,.6,5.6,1.5,11.5,2.2,17.5,2.2s6.3-.2,9.3-.6c-1.5-14.1,4.1-24.6,4.1-24.6Z"/>
        <path class="cls-4" d="M246.4,140.5c1.1-7.3,3.6-12.1,3.8-12.6,0,0,0,0,0,0-6.7-.5-13.3-1.9-19.3-4.5,4.8,6,10,11.5,14.5,16.1.2.3.6.6,1,1Z"/>
        <path class="cls-3" d="M257.8,48.6c8.7,1.5,14.7,15.3,14.7,15.3,0,0-.7-15-13.2-22.3-14.6-8.4-25.8-6.3-31.2-1.9-.4.3-.9.6-1.4.6-4.9.6-31.1,5.1-33.2,34.7-2.1,28.9,19.4,39.2,23.2,41.7,3.1,2.1,4.5,4.6,4.7,6.8.4,3.4-2.3,4.4-2.1,4.7.2.4,2.2,1,4.5-1.1,1.5-1.3,1.5-4,1.5-4,.3,1.6.3,4.2,0,5.6-.2,1.1-.6,1.9-.9,2.5-.3.4.2,1,.7.9,6.4-1.3,16.3-8.9,18.4-19.3,0,0,0-.1,0-.2-5.7-1.5-14.3-9.1-15.2-15.9-.9-7.6,4.4-9.5,10.2-5.9,2.5,1.4,4.9,3.8,6.3,5.3.4.4,1.1.2,1.2-.4.9-9.2,2.4-21,3.5-20.6,1,.4,1.3,2.4,1.2,5.8,0,2.2-.6,6-1,7.5-.2.9,1.1,1.5,1.8.8,3.8-3.8,12.3-13.7,11.5-26.1-.5-8-3.7-11.9-5.7-13.4-.4-.3,0-.9.4-.9Z"/>
        <path class="cls-5" d="M142.1,83.9c0,38.2-31,69.2-69.2,69.2S3.7,122.1,3.7,83.9,34.7,14.7,72.9,14.7s69.2,31,69.2,69.2Z"/>
        <path class="cls-7" d="M86.3,127.9c1.9.1,3.8.2,5.7.2,4.2,0,11.8-.5,14.7-4.2,1.6-2,3.8-23.5,4.7-24.5,1.4-1.3,3.8-.4,5.5-1.6,3.4-2.4-1.5-5.5-4.5-14.9-6.5-17.5,1.4-29.9-24.5-37.2-17.3-4.9-39,2.9-44.7,25.8-1.9,7.9-1.4,16.1.5,23.9,2,7.8,10.2,17.5,15.9,22.9,1,7.1-4.3,32-4.3,32,0,.2,0,.4,0,.6,5.6,1.5,11.5,2.2,17.5,2.2s6.3-.2,9.3-.6c-1.5-14.1,4.1-24.6,4.1-24.6Z"/>
        <path class="cls-4" d="M82.5,140.5c1.1-7.3,3.6-12.1,3.8-12.6,0,0,0,0,0,0-6.7-.5-13.3-1.9-19.3-4.5,4.8,6,10,11.5,14.5,16.1.2.3.6.6,1,1Z"/>
        <path class="cls-3" d="M96.5,43.9c11.8,6.9,12.1,20.5,12.1,20.5,0,0-6.5-9.7-14-12.1,1.2,3.7-1.3,6.1-6.6,11.3h0c-15,14.6,0,36.2,2.5,37.8,2.5,1.6,0,3.6-2.7,3.9-1.3.2-2.9-2.2-4.9-5.1-2.1-3.1-4.6-6.8-7.6-8.8-5.5-3.4-10.5-1.6-9.6,5.6.3,2.3,1.6,4.8,3.3,7,.3.7.9,1.2,1.4,1.7.7.6,1.3,1.2,1.5,2.2.7,4.1-1.5,8.6-3.2,11.4-.2.3-.3.5-.5.8-2.3,3.8-4.7,7.7-12.3-2.4-1.7-2.3-4.2-4.2-6.8-6.4-7.8-6.4-17.5-14.2-16-34.5,2-27.8,26.6-32,31.2-32.6.5,0,.9-.3,1.3-.6,5.1-4.1,17.4-7.7,31.1.2ZM104.7,107.6c.7,3.2,2.3,4.2,4.2,4.3.3,0,.5,0,.7,0,.6,0,1.2.4,1.3,1,.2,2.7.2,7-.7,9.2-1.4,3.2-5.9,6.2-11.4.5-3.8-3.9-3.2-14.7-3.2-14.7,0-.3.1-.6.3-.9,3-3.9,7.8-7.4,12.8-8.1,7.4-1.1-.1,7-3,8.4-.3.1-.6.2-.8.3Z"/>
      </g>
    </g>
  </g>
</svg>